<?xml version="1.0" encoding="utf-8"?>
<!-- Generator: Adobe Illustrator 15.0.0, SVG Export Plug-In . SVG Version: 6.00 Build 0)  -->
<!DOCTYPE svg PUBLIC "-//W3C//DTD SVG 1.1//EN" "http://www.w3.org/Graphics/SVG/1.1/DTD/svg11.dtd">
<svg version="1.1" id="Layer_1" xmlns="http://www.w3.org/2000/svg" xmlns:xlink="http://www.w3.org/1999/xlink" x="0px" y="0px"
	 width="28.346px" height="28.346px" viewBox="0 0 28.346 28.346" enable-background="new 0 0 28.346 28.346" xml:space="preserve">
<rect x="6.058" y="7.298" fill="none" stroke="#333333" stroke-width="2" stroke-linejoin="round" stroke-miterlimit="10" width="16.333" height="19.667"/>
<path fill="#333333" d="M24.229,2.215h-6.649V1.336c0-0.468-0.383-0.851-0.852-0.851h-5.006c-0.468,0-0.851,0.383-0.851,0.851v0.878
	H4.221c-0.468,0-0.851,0.383-0.851,0.851v1.132c0,0.468,0.383,0.851,0.851,0.851h20.007c0.468,0,0.851-0.383,0.851-0.851V3.065
	C25.079,2.597,24.697,2.215,24.229,2.215z"/>
<line fill="none" stroke="#333333" stroke-width="2" stroke-linecap="round" stroke-linejoin="round" stroke-miterlimit="10" x1="11.808" y1="7.298" x2="11.808" y2="26.965"/>
<line fill="none" stroke="#333333" stroke-width="2" stroke-linecap="round" stroke-linejoin="round" stroke-miterlimit="10" x1="16.798" y1="7.298" x2="16.798" y2="26.965"/>
</svg>
